<svg xmlns="http://www.w3.org/2000/svg" width="1200" height="260" viewBox="0 0 1200 260" role="img" aria-labelledby="title desc">
  <title id="title">Flujo de construcción de software</title>
  <desc id="desc">Auditoría, contratos, implementación, tests, integración y observabilidad.</desc>
  <rect width="1200" height="260" rx="24" fill="#111827"/>
  <g font-family="Inter,Segoe UI,Arial,sans-serif" text-anchor="middle">
    <g fill="#1F2937" stroke="#475569" stroke-width="2">
      <rect x="35" y="80" width="155" height="92" rx="16"/>
      <rect x="230" y="80" width="155" height="92" rx="16"/>
      <rect x="425" y="80" width="155" height="92" rx="16"/>
      <rect x="620" y="80" width="155" height="92" rx="16"/>
      <rect x="815" y="80" width="155" height="92" rx="16"/>
      <rect x="1010" y="80" width="155" height="92" rx="16"/>
    </g>
    <g fill="#F8FAFC" font-size="18" font-weight="600">
      <text x="112" y="132">Auditoría</text><text x="307" y="132">Contratos</text>
      <text x="502" y="122">Implementación</text><text x="502" y="146">incremental</text>
      <text x="697" y="132">Tests</text><text x="892" y="132">Integración</text>
      <text x="1087" y="132">Observabilidad</text>
    </g>
    <g fill="#94A3B8" font-size="13">
      <text x="112" y="155">Contexto real</text><text x="307" y="155">Límites claros</text>
      <text x="697" y="155">Reproducibles</text><text x="892" y="155">Controlada</text>
      <text x="1087" y="155">Datos operativos</text>
    </g>
  </g>
  <g stroke="#3B82F6" stroke-width="3" fill="none" stroke-linecap="round">
    <path d="M190 126H222"/><path d="M385 126H417"/><path d="M580 126H612"/>
    <path d="M775 126H807"/><path d="M970 126H1002"/>
  </g>
  <g fill="#34D399"><circle cx="206" cy="126" r="5"/><circle cx="401" cy="126" r="5"/><circle cx="596" cy="126" r="5"/><circle cx="791" cy="126" r="5"/><circle cx="986" cy="126" r="5"/></g>
</svg>
